# xmcd CD database file
#
# Track frame offsets:
#	150
#	26849
#	56095
#	80019
#	99963
#	126853
#	168285
#	192196
#	228890
#
# Disc length: 3332 seconds
#
# Revision: 4
# Processed by: cddbd v1.5.2PL0 Copyright (c) Steve Scherf et al.
# Submitted via: CDex 1.51
#
DISCID=6d0d0209
DTITLE=Jean-Baptiste Pergolèse - Symphonies  (Alessio Vlad, Orchestra da Camera di Santa Cecilia)
DYEAR=1900
DGENRE=Classique
TTITLE0=Olimpiade - Allegro assai e spirituoso - Andante ma poco - Allrgro vivace
TTITLE1=La Frate'nnammorato - Allegro spirituoso - Andante - Allegro assai
TTITLE2=Salustia - Allegro Spirituoso - Andante - Allegro assai
TTITLE3=Piccola Sinfonia - Adagio-Allegro moderato-Adagio assai-Allegro moderato-Allegro
TTITLE4=Il Flaminio - Allegro spirituoso - Grave - Allegro
TTITLE5=Sinfonia - Maestoso - Andante - Allegro
TTITLE6=Adriano in Siria - Allegro assai e spirituoso - Amoroso - Andante
TTITLE7=Sinfonia - Allegro - Andante - Allegro
TTITLE8=Il Prigionier superbo - Allegro e spirituoso - Largo - Allegro spirituoso
EXTD=
EXTT0=
EXTT1=
EXTT2=
EXTT3=
EXTT4=
EXTT5=
EXTT6=
EXTT7=
EXTT8=
PLAYORDER=
